<svg width="55" height="54" viewBox="0 0 55 54" fill="none" xmlns="http://www.w3.org/2000/svg">
<g id="devicon:linkedin">
<path id="Vector" d="M49.8066 1.26582H5.93164C4.93615 1.25569 3.97729 1.64089 3.26547 2.33689C2.55365 3.03289 2.147 3.98285 2.13477 4.97832V49.0305C2.14922 50.0245 2.55684 50.9723 3.26842 51.6665C3.98 52.3607 4.93759 52.7447 5.93164 52.7346H49.8066C50.8022 52.7425 51.7604 52.356 52.4719 51.6595C53.1833 50.9631 53.5902 50.0134 53.6035 49.0179V4.96566C53.5858 3.97311 53.177 3.02768 52.466 2.33488C51.755 1.64207 50.7993 1.25788 49.8066 1.26582Z" fill="#0076B2"/>
<path id="Vector_2" d="M9.75496 20.558H17.3951V45.1406H9.75496V20.558ZM13.5772 8.32361C14.4534 8.32361 15.31 8.58351 16.0386 9.07044C16.7671 9.55737 17.3349 10.2494 17.67 11.0591C18.0052 11.8688 18.0927 12.7596 17.9214 13.619C17.7501 14.4784 17.3278 15.2677 16.7079 15.8871C16.088 16.5064 15.2983 16.9279 14.4387 17.0984C13.5792 17.2688 12.6884 17.1805 11.8791 16.8446C11.0697 16.5087 10.3782 15.9402 9.89195 15.2112C9.40572 14.4822 9.14663 13.6254 9.14746 12.7491C9.14858 11.575 9.61577 10.4494 10.4464 9.61954C11.277 8.78973 12.4031 8.32361 13.5772 8.32361ZM22.1876 20.558H29.5114V23.933H29.6126C30.6336 22.0008 33.1226 19.9631 36.8393 19.9631C44.5765 19.9463 46.0109 25.0383 46.0109 31.6406V45.1406H38.3707V33.1805C38.3707 30.3328 38.3201 26.6667 34.4009 26.6667C30.4817 26.6667 29.8151 29.7717 29.8151 32.9949V45.1406H22.1876V20.558Z" fill="white"/>
</g>
</svg>
