<svg width="55" height="54" viewBox="0 0 55 54" fill="none" xmlns="http://www.w3.org/2000/svg">
<g id="devicon:facebook">
<path id="Vector" d="M49.9748 2.03784H5.55562C4.03417 2.03784 2.80078 3.27123 2.80078 4.79269V49.2119C2.80078 50.7334 4.03417 51.9667 5.55562 51.9667H49.9748C51.4963 51.9667 52.7297 50.7334 52.7297 49.2119V4.79269C52.7297 3.27123 51.4963 2.03784 49.9748 2.03784Z" fill="#3D5A98"/>
<path id="Vector_2" d="M37.2471 51.9623V32.6278H43.7355L44.7058 25.0931H37.2471V20.2837C37.2471 18.1026 37.8546 16.6134 40.9807 16.6134H44.9716V9.86338C43.039 9.66234 41.097 9.56657 39.154 9.57651C33.408 9.57651 29.4508 13.0781 29.4508 19.537V25.0931H22.9624V32.6278H29.4508V51.9623H37.2471Z" fill="white"/>
</g>
</svg>
