<svg width="54" height="54" viewBox="0 0 54 54" fill="none" xmlns="http://www.w3.org/2000/svg">
<g id="Google" clip-path="url(#clip0_237_581)">
<path id="Vector" d="M53.8408 27.4991C53.8408 25.3127 53.6592 23.7173 53.2663 22.0627H27.7178V31.9309H42.7142C42.412 34.3832 40.7793 38.0764 37.151 40.5581L37.1002 40.8885L45.1781 47.0037L45.7378 47.0583C50.8776 42.4196 53.8408 35.5945 53.8408 27.4991Z" fill="#4285F4"/>
<path id="Vector_2" d="M27.7177 53.4996C35.0646 53.4996 41.2325 51.1359 45.7377 47.0587L37.1509 40.5585C34.8531 42.1244 31.7691 43.2176 27.7177 43.2176C20.5218 43.2176 14.4144 38.5791 12.2372 32.1677L11.9181 32.1942L3.51854 38.5465L3.40869 38.8449C7.88342 47.5313 17.0749 53.4996 27.7177 53.4996Z" fill="#34A853"/>
<path id="Vector_3" d="M12.2379 32.1674C11.6634 30.5129 11.331 28.74 11.331 26.9083C11.331 25.0763 11.6634 23.3037 12.2077 21.6491L12.1924 21.2968L3.68759 14.8424L3.40932 14.9717C1.56507 18.5764 0.506836 22.6242 0.506836 26.9083C0.506836 31.1924 1.56507 35.24 3.40932 38.8446L12.2379 32.1674Z" fill="#FBBC05"/>
<path id="Vector_4" d="M27.7177 10.5991C32.8273 10.5991 36.274 12.7559 38.2394 14.5583L45.919 7.23093C41.2025 2.94683 35.0646 0.317261 27.7177 0.317261C17.0749 0.317261 7.88342 6.28543 3.40869 14.9718L12.207 21.6492C14.4144 15.2378 20.5218 10.5991 27.7177 10.5991Z" fill="#EB4335"/>
</g>
<defs>
<clipPath id="clip0_237_581">
<rect width="53.3654" height="53.3654" fill="white" transform="translate(0.503906 0.317261)"/>
</clipPath>
</defs>
</svg>
