<svg width="53" height="52" viewBox="0 0 53 52" fill="none" xmlns="http://www.w3.org/2000/svg">
<g id="Group">
<path id="Vector" d="M40.6004 0.0529785H13.0318C6.31454 0.0529785 0.869141 5.49838 0.869141 12.2156V39.7843C0.869141 46.5015 6.31454 51.9469 13.0318 51.9469H40.6004C47.3177 51.9469 52.7631 46.5015 52.7631 39.7843V12.2156C52.7631 5.49838 47.3177 0.0529785 40.6004 0.0529785Z" fill="url(#paint0_radial_237_617)"/>
<path id="Vector_2" d="M40.6004 0.0529785H13.0318C6.31454 0.0529785 0.869141 5.49838 0.869141 12.2156V39.7843C0.869141 46.5015 6.31454 51.9469 13.0318 51.9469H40.6004C47.3177 51.9469 52.7631 46.5015 52.7631 39.7843V12.2156C52.7631 5.49838 47.3177 0.0529785 40.6004 0.0529785Z" fill="url(#paint1_radial_237_617)"/>
<path id="Vector_3" d="M26.8173 5.72888C21.3121 5.72888 20.6211 5.753 18.459 5.85132C16.3009 5.95024 14.8278 6.29181 13.539 6.79311C12.2055 7.31084 11.0746 8.0035 9.94795 9.13057C8.82027 10.2574 8.1276 11.3884 7.60826 12.7212C7.10554 14.0104 6.76356 15.4841 6.66647 17.6412C6.56977 19.8035 6.54443 20.4947 6.54443 26.0002C6.54443 31.5056 6.56876 32.1944 6.66687 34.3565C6.7662 36.5145 7.10777 37.9876 7.60866 39.2765C8.12679 40.6099 8.81946 41.7408 9.94653 42.8675C11.073 43.9952 12.2039 44.6895 13.5363 45.2072C14.8262 45.7085 16.2995 46.0501 18.4571 46.149C20.6194 46.2473 21.3099 46.2714 26.8149 46.2714C32.3207 46.2714 33.0095 46.2473 35.1716 46.149C37.3297 46.0501 38.8044 45.7085 40.0943 45.2072C41.4271 44.6895 42.5564 43.9952 43.6826 42.8675C44.8103 41.7408 45.5028 40.6099 46.0223 39.2771C46.5206 37.9876 46.8628 36.5141 46.9641 34.3569C47.0612 32.1948 47.0866 31.5056 47.0866 26.0002C47.0866 20.4947 47.0612 19.8039 46.9641 17.6416C46.8628 15.4835 46.5206 14.0106 46.0223 12.7218C45.5028 11.3884 44.8103 10.2574 43.6826 9.13057C42.5552 8.00309 41.4275 7.31043 40.093 6.79332C38.8008 6.29181 37.3269 5.95004 35.1688 5.85132C33.0065 5.753 32.3181 5.72888 26.811 5.72888H26.8173ZM24.9988 9.38193C25.5386 9.38112 26.1409 9.38193 26.8173 9.38193C32.2299 9.38193 32.8713 9.40139 35.0087 9.49849C36.9851 9.5889 38.0578 9.91911 38.7724 10.1966C39.7184 10.5639 40.3929 11.0032 41.1019 11.7129C41.8114 12.4224 42.2505 13.098 42.6188 14.0441C42.8963 14.7576 43.227 15.8304 43.317 17.8068C43.4141 19.9438 43.4351 20.5855 43.4351 25.9955C43.4351 31.4054 43.4141 32.0474 43.317 34.1842C43.2265 36.1606 42.8963 37.2334 42.6188 37.9471C42.2515 38.8932 41.8114 39.5668 41.1019 40.2758C40.3924 40.9853 39.7188 41.4244 38.7724 41.7919C38.0586 42.0706 36.9851 42.4001 35.0087 42.4905C32.8717 42.5876 32.2299 42.6086 26.8173 42.6086C21.4045 42.6086 20.763 42.5876 18.6262 42.4905C16.6498 42.3992 15.577 42.069 14.8619 41.7915C13.916 41.424 13.2402 40.9849 12.5307 40.2754C11.8212 39.566 11.3821 38.8919 11.0138 37.9455C10.7363 37.2317 10.4057 36.159 10.3157 34.1826C10.2186 32.0456 10.1991 31.4038 10.1991 25.9904C10.1991 20.577 10.2186 19.9387 10.3157 17.8017C10.4061 15.8253 10.7363 14.7525 11.0138 14.038C11.3813 13.0919 11.8212 12.4163 12.5309 11.7068C13.2406 10.9973 13.916 10.5581 14.8621 10.1899C15.5766 9.91121 16.6498 9.5818 18.6262 9.49099C20.4962 9.40646 21.2209 9.38112 24.9988 9.37686V9.38193ZM37.638 12.7477C36.2951 12.7477 35.2055 13.8363 35.2055 15.1795C35.2055 16.5224 36.2951 17.612 37.638 17.612C38.981 17.612 40.0705 16.5224 40.0705 15.1795C40.0705 13.8365 38.981 12.7469 37.638 12.7469V12.7477ZM26.8173 15.5899C21.0684 15.5899 16.4073 20.2511 16.4073 26.0002C16.4073 31.7492 21.0684 36.4081 26.8173 36.4081C32.5664 36.4081 37.2259 31.7492 37.2259 26.0002C37.2259 20.2513 32.566 15.5899 26.8169 15.5899H26.8173ZM26.8173 19.243C30.549 19.243 33.5745 22.268 33.5745 26.0002C33.5745 29.7319 30.549 32.7573 26.8173 32.7573C23.0856 32.7573 20.0604 29.7319 20.0604 26.0002C20.0604 22.268 23.0854 19.243 26.8173 19.243Z" fill="white"/>
</g>
<defs>
<radialGradient id="paint0_radial_237_617" cx="0" cy="0" r="1" gradientUnits="userSpaceOnUse" gradientTransform="translate(14.6535 55.9437) rotate(-90) scale(51.4307 47.8346)">
<stop stop-color="#FFDD55"/>
<stop offset="0.1" stop-color="#FFDD55"/>
<stop offset="0.5" stop-color="#FF543E"/>
<stop offset="1" stop-color="#C837AB"/>
</radialGradient>
<radialGradient id="paint1_radial_237_617" cx="0" cy="0" r="1" gradientUnits="userSpaceOnUse" gradientTransform="translate(-7.82329 3.79116) rotate(78.681) scale(22.9898 94.7648)">
<stop stop-color="#3771C8"/>
<stop offset="0.128" stop-color="#3771C8"/>
<stop offset="1" stop-color="#6600FF" stop-opacity="0"/>
</radialGradient>
</defs>
</svg>
